<mxfile host="app.diagrams.net" agent="Mozilla/5.0 (Windows NT 10.0; Win64; x64) AppleWebKit/537.36 (KHTML, like Gecko) Chrome/135.0.0.0 Safari/537.36" version="26.2.12">
  <diagram name="Page-1" id="vat00PN2V3IArWTDTXHe">
    <mxGraphModel grid="1" page="1" gridSize="10" guides="1" tooltips="1" connect="1" arrows="1" fold="1" pageScale="1" pageWidth="850" pageHeight="1100" math="0" shadow="0">
      <root>
        <mxCell id="0" />
        <mxCell id="1" parent="0" />
        <mxCell id="7NnCABxyxMaAeRRBPUbz-1" value="&lt;font style=&quot;font-size: 14px;&quot;&gt;Start&lt;/font&gt;" style="rounded=1;whiteSpace=wrap;html=1;" vertex="1" parent="1">
          <mxGeometry x="80" y="-1000" width="120" height="60" as="geometry" />
        </mxCell>
        <mxCell id="7NnCABxyxMaAeRRBPUbz-2" value="&lt;font style=&quot;font-size: 14px;&quot;&gt;Collect Student data&lt;/font&gt;" style="rounded=1;whiteSpace=wrap;html=1;" vertex="1" parent="1">
          <mxGeometry x="280" y="-1000" width="120" height="60" as="geometry" />
        </mxCell>
        <mxCell id="7NnCABxyxMaAeRRBPUbz-3" value="&lt;font style=&quot;font-size: 14px;&quot;&gt;Validate Data&lt;/font&gt;" style="rounded=1;whiteSpace=wrap;html=1;" vertex="1" parent="1">
          <mxGeometry x="480" y="-1000" width="120" height="60" as="geometry" />
        </mxCell>
        <mxCell id="7NnCABxyxMaAeRRBPUbz-4" value="&lt;font style=&quot;font-size: 14px;&quot;&gt;Error Handling&lt;/font&gt;" style="rounded=1;whiteSpace=wrap;html=1;" vertex="1" parent="1">
          <mxGeometry x="670" y="-1000" width="120" height="60" as="geometry" />
        </mxCell>
        <mxCell id="7NnCABxyxMaAeRRBPUbz-5" value="&lt;font style=&quot;font-size: 14px;&quot;&gt;Generate College&lt;/font&gt;" style="rounded=1;whiteSpace=wrap;html=1;" vertex="1" parent="1">
          <mxGeometry x="280" y="-880" width="120" height="60" as="geometry" />
        </mxCell>
        <mxCell id="7NnCABxyxMaAeRRBPUbz-6" value="&lt;font style=&quot;font-size: 14px;&quot;&gt;Rank Colleges&lt;/font&gt;" style="rounded=1;whiteSpace=wrap;html=1;" vertex="1" parent="1">
          <mxGeometry x="480" y="-880" width="120" height="60" as="geometry" />
        </mxCell>
        <mxCell id="7NnCABxyxMaAeRRBPUbz-7" value="&lt;font style=&quot;font-size: 14px;&quot;&gt;Generate Preference list&lt;/font&gt;" style="rounded=1;whiteSpace=wrap;html=1;" vertex="1" parent="1">
          <mxGeometry x="680" y="-880" width="120" height="60" as="geometry" />
        </mxCell>
        <mxCell id="7NnCABxyxMaAeRRBPUbz-8" value="&lt;font style=&quot;font-size: 14px;&quot;&gt;Display Preference list&lt;/font&gt;" style="rounded=1;whiteSpace=wrap;html=1;" vertex="1" parent="1">
          <mxGeometry x="280" y="-760" width="120" height="60" as="geometry" />
        </mxCell>
        <mxCell id="7NnCABxyxMaAeRRBPUbz-9" value="&lt;font style=&quot;font-size: 14px;&quot;&gt;Modify Preference list&lt;/font&gt;" style="rounded=1;whiteSpace=wrap;html=1;" vertex="1" parent="1">
          <mxGeometry x="490" y="-760" width="120" height="60" as="geometry" />
        </mxCell>
        <mxCell id="7NnCABxyxMaAeRRBPUbz-10" value="&lt;font style=&quot;font-size: 14px;&quot;&gt;&amp;nbsp;Re-enter Preferences&lt;/font&gt;" style="rounded=1;whiteSpace=wrap;html=1;" vertex="1" parent="1">
          <mxGeometry x="690" y="-760" width="120" height="60" as="geometry" />
        </mxCell>
        <mxCell id="7NnCABxyxMaAeRRBPUbz-11" value="&lt;font style=&quot;font-size: 14px;&quot;&gt;Exit&lt;/font&gt;" style="rounded=1;whiteSpace=wrap;html=1;" vertex="1" parent="1">
          <mxGeometry x="470" y="-640" width="120" height="60" as="geometry" />
        </mxCell>
        <mxCell id="7NnCABxyxMaAeRRBPUbz-12" value="&lt;font style=&quot;font-size: 14px;&quot;&gt;Save/Export List&lt;/font&gt;" style="rounded=1;whiteSpace=wrap;html=1;" vertex="1" parent="1">
          <mxGeometry x="280" y="-640" width="120" height="60" as="geometry" />
        </mxCell>
        <mxCell id="7NnCABxyxMaAeRRBPUbz-13" value="" style="endArrow=classic;html=1;rounded=0;exitX=1;exitY=0.5;exitDx=0;exitDy=0;entryX=0;entryY=0.5;entryDx=0;entryDy=0;" edge="1" parent="1" source="7NnCABxyxMaAeRRBPUbz-1" target="7NnCABxyxMaAeRRBPUbz-2">
          <mxGeometry width="50" height="50" relative="1" as="geometry">
            <mxPoint x="330" y="-800" as="sourcePoint" />
            <mxPoint x="450" y="-780" as="targetPoint" />
          </mxGeometry>
        </mxCell>
        <mxCell id="7NnCABxyxMaAeRRBPUbz-14" value="" style="endArrow=classic;html=1;rounded=0;exitX=1;exitY=0.5;exitDx=0;exitDy=0;entryX=0;entryY=0.5;entryDx=0;entryDy=0;" edge="1" parent="1">
          <mxGeometry width="50" height="50" relative="1" as="geometry">
            <mxPoint x="400" y="-970.5" as="sourcePoint" />
            <mxPoint x="480" y="-970.5" as="targetPoint" />
          </mxGeometry>
        </mxCell>
        <mxCell id="7NnCABxyxMaAeRRBPUbz-15" value="" style="endArrow=classic;html=1;rounded=0;exitX=1;exitY=0.5;exitDx=0;exitDy=0;entryX=0;entryY=0.5;entryDx=0;entryDy=0;" edge="1" parent="1" target="7NnCABxyxMaAeRRBPUbz-4">
          <mxGeometry width="50" height="50" relative="1" as="geometry">
            <mxPoint x="600" y="-970.5" as="sourcePoint" />
            <mxPoint x="680" y="-970.5" as="targetPoint" />
          </mxGeometry>
        </mxCell>
        <mxCell id="7NnCABxyxMaAeRRBPUbz-16" value="" style="endArrow=classic;html=1;rounded=0;exitX=1;exitY=0.5;exitDx=0;exitDy=0;entryX=0;entryY=0.5;entryDx=0;entryDy=0;" edge="1" parent="1">
          <mxGeometry width="50" height="50" relative="1" as="geometry">
            <mxPoint x="400" y="-850.5" as="sourcePoint" />
            <mxPoint x="480" y="-850.5" as="targetPoint" />
          </mxGeometry>
        </mxCell>
        <mxCell id="7NnCABxyxMaAeRRBPUbz-17" value="" style="endArrow=classic;html=1;rounded=0;exitX=1;exitY=0.5;exitDx=0;exitDy=0;entryX=0;entryY=0.5;entryDx=0;entryDy=0;" edge="1" parent="1">
          <mxGeometry width="50" height="50" relative="1" as="geometry">
            <mxPoint x="600" y="-850.5" as="sourcePoint" />
            <mxPoint x="680" y="-850.5" as="targetPoint" />
          </mxGeometry>
        </mxCell>
        <mxCell id="7NnCABxyxMaAeRRBPUbz-18" value="" style="endArrow=classic;html=1;rounded=0;exitX=1;exitY=0.5;exitDx=0;exitDy=0;entryX=0;entryY=0.5;entryDx=0;entryDy=0;" edge="1" parent="1" target="7NnCABxyxMaAeRRBPUbz-9">
          <mxGeometry width="50" height="50" relative="1" as="geometry">
            <mxPoint x="400" y="-730.5" as="sourcePoint" />
            <mxPoint x="480" y="-730.5" as="targetPoint" />
          </mxGeometry>
        </mxCell>
        <mxCell id="7NnCABxyxMaAeRRBPUbz-19" value="" style="endArrow=classic;html=1;rounded=0;exitX=1;exitY=0.5;exitDx=0;exitDy=0;entryX=0;entryY=0.5;entryDx=0;entryDy=0;" edge="1" parent="1">
          <mxGeometry width="50" height="50" relative="1" as="geometry">
            <mxPoint x="610" y="-730.5" as="sourcePoint" />
            <mxPoint x="690" y="-730.5" as="targetPoint" />
          </mxGeometry>
        </mxCell>
        <mxCell id="7NnCABxyxMaAeRRBPUbz-20" value="" style="endArrow=classic;html=1;rounded=0;exitX=1;exitY=0.5;exitDx=0;exitDy=0;entryX=0;entryY=0.5;entryDx=0;entryDy=0;" edge="1" parent="1" source="7NnCABxyxMaAeRRBPUbz-12" target="7NnCABxyxMaAeRRBPUbz-11">
          <mxGeometry width="50" height="50" relative="1" as="geometry">
            <mxPoint x="400" y="-730" as="sourcePoint" />
            <mxPoint x="450" y="-780" as="targetPoint" />
          </mxGeometry>
        </mxCell>
        <mxCell id="7NnCABxyxMaAeRRBPUbz-21" value="" style="endArrow=classic;html=1;rounded=0;exitX=0.5;exitY=1;exitDx=0;exitDy=0;" edge="1" parent="1" source="7NnCABxyxMaAeRRBPUbz-2" target="7NnCABxyxMaAeRRBPUbz-5">
          <mxGeometry width="50" height="50" relative="1" as="geometry">
            <mxPoint x="400" y="-730" as="sourcePoint" />
            <mxPoint x="450" y="-780" as="targetPoint" />
          </mxGeometry>
        </mxCell>
        <mxCell id="7NnCABxyxMaAeRRBPUbz-22" value="" style="endArrow=classic;html=1;rounded=0;exitX=0.5;exitY=1;exitDx=0;exitDy=0;entryX=0.5;entryY=0;entryDx=0;entryDy=0;" edge="1" parent="1" source="7NnCABxyxMaAeRRBPUbz-5" target="7NnCABxyxMaAeRRBPUbz-8">
          <mxGeometry width="50" height="50" relative="1" as="geometry">
            <mxPoint x="400" y="-730" as="sourcePoint" />
            <mxPoint x="450" y="-780" as="targetPoint" />
          </mxGeometry>
        </mxCell>
        <mxCell id="7NnCABxyxMaAeRRBPUbz-23" value="" style="endArrow=classic;html=1;rounded=0;exitX=0.5;exitY=1;exitDx=0;exitDy=0;entryX=0.5;entryY=0;entryDx=0;entryDy=0;" edge="1" parent="1" source="7NnCABxyxMaAeRRBPUbz-8" target="7NnCABxyxMaAeRRBPUbz-12">
          <mxGeometry width="50" height="50" relative="1" as="geometry">
            <mxPoint x="400" y="-730" as="sourcePoint" />
            <mxPoint x="450" y="-780" as="targetPoint" />
          </mxGeometry>
        </mxCell>
        <mxCell id="7NnCABxyxMaAeRRBPUbz-24" value="" style="endArrow=classic;html=1;rounded=0;exitX=0.5;exitY=1;exitDx=0;exitDy=0;" edge="1" parent="1" source="7NnCABxyxMaAeRRBPUbz-4">
          <mxGeometry width="50" height="50" relative="1" as="geometry">
            <mxPoint x="400" y="-730" as="sourcePoint" />
            <mxPoint x="640" y="-850" as="targetPoint" />
            <Array as="points">
              <mxPoint x="730" y="-920" />
              <mxPoint x="640" y="-920" />
            </Array>
          </mxGeometry>
        </mxCell>
        <mxCell id="7NnCABxyxMaAeRRBPUbz-25" value="" style="endArrow=classic;html=1;rounded=0;exitX=0.5;exitY=1;exitDx=0;exitDy=0;" edge="1" parent="1">
          <mxGeometry width="50" height="50" relative="1" as="geometry">
            <mxPoint x="740" y="-820" as="sourcePoint" />
            <mxPoint x="650" y="-730" as="targetPoint" />
            <Array as="points">
              <mxPoint x="740" y="-800" />
              <mxPoint x="650" y="-800" />
            </Array>
          </mxGeometry>
        </mxCell>
      </root>
    </mxGraphModel>
  </diagram>
</mxfile>
